# xmcd
#
# Track frame offsets: 
#        150
#        14718
#        33737
#        49438
#        65819
#        75827
#        91686
#        103656
#        114848
#        130653
#        143514
#        161368
#        175396
#        191890
#        206025
#        217586
#        234673
#        254787
#        271835
#        286942
#        298429
#        322263
#
# Disc length: 4457 seconds
#
# Revision: 0
# Processed by: cddbd v1.5.2PL0 Copyright (c) Steve Scherf et al.
# Submitted via: ExactAudioCopyFreeDBPlugin 1.0
#
DISCID=4f116716
DTITLE=Various Artist - Best Of Tex - Mex Music [CD 2)
DYEAR=1900
DGENRE=Folk/Rock
TTITLE0=Texas Tornados - Laredo Rose
TTITLE1=Texas Tornados - Haley's Comet
TTITLE2=Flaco Jimenez and Dwight Yoakam - Carmelita
TTITLE3=Texas Tornados - Mentiras
TTITLE4=Flaco Jimenez - Totonilco
TTITLE5=Texas Tornados - My Cruel Pain
TTITLE6=Texas Tornados - Nitty Gritty
TTITLE7=Texas Tornados - Who Were You Thinkin' Of
TTITLE8=Flaco Jimenez and John Hiatt - Across the Borderline
TTITLE9=Texas Tornados - Taywena
TTITLE10=Texas Tornados - One And Only
TTITLE11=Flaco Jimenez - La Monja
TTITLE12=Sir Douglas Quintet - Down On The Border
TTITLE13=Texas Tornados - Marina
TTITLE14=Texas Tornados - Volver
TTITLE15=Flaco Jimenez - Unbekannt
TTITLE16=Texas Tornados - To Ramona
TTITLE17=Sir Douglas Quintet - Dynamite Woman
TTITLE18=Texas Tornados - She Never Spoke Spanish To Me
TTITLE19=Flaco Jimenez - Unbekannt
TTITLE20=Doug Sahm - Mendocino (Live)
TTITLE21=Flaco Jimenez and Maria Dolores Pradera - Las Mañanitas
EXTD=
EXTT0=
EXTT1=
EXTT2=
EXTT3=
EXTT4=
EXTT5=
EXTT6=
EXTT7=
EXTT8=
EXTT9=
EXTT10=
EXTT11=
EXTT12=
EXTT13=
EXTT14=
EXTT15=
EXTT16=
EXTT17=
EXTT18=
EXTT19=
EXTT20=
EXTT21=
PLAYORDER=
